<svg xmlns="http://www.w3.org/2000/svg" xmlns:xlink="http://www.w3.org/1999/xlink" width="17.807" height="20.205" viewBox="0 0 17.807 20.205"><defs><clipPath id="a"><rect width="17.807" height="20.205" fill="#fff"/></clipPath></defs><g clip-path="url(#a)"><path d="M7.665,78.3A12.933,12.933,0,0,1,3.129,76.52,11.736,11.736,0,0,1,.19,73.509a.934.934,0,0,1-.026-1.092,6.522,6.522,0,0,1,4.619-3.412,1.467,1.467,0,0,1,1.105.257,5.372,5.372,0,0,0,6.032.015,1.726,1.726,0,0,1,1.407-.206,6.554,6.554,0,0,1,4.3,3.251,1.011,1.011,0,0,1-.045,1.222,10.427,10.427,0,0,1-6.9,4.592c-.176.033-.369.012-.51.159Z" transform="translate(0 -58.091)" fill="#fff"/><path d="M29.777,0a6.612,6.612,0,0,1,2.964,1.791,5.316,5.316,0,0,1,.474,6.291,5.188,5.188,0,0,1-9.559-2.909,5.18,5.18,0,0,1,3.6-4.907C27.479.194,27.687.09,27.9,0Z" transform="translate(-19.922)" fill="#fff"/></g></svg>